<?xml version="1.0" standalone="no"?>
<!DOCTYPE svg PUBLIC "-//W3C//DTD SVG 20010904//EN"
 "http://www.w3.org/TR/2001/REC-SVG-20010904/DTD/svg10.dtd">
<svg version="1.0" xmlns="http://www.w3.org/2000/svg"
 width="300.000000pt" height="221.000000pt" viewBox="0 0 300.000000 221.000000"
 preserveAspectRatio="xMidYMid meet">
<metadata>
Created by potrace 1.10, written by Peter Selinger 2001-2011
</metadata>
<g transform="translate(0.000000,221.000000) scale(0.050000,-0.050000)"
fill="#000000" stroke="none">
<path d="M2335 3712 c-150 -41 -255 -171 -255 -316 -1 -91 -17 -108 -112 -121
-186 -24 -308 -173 -308 -377 0 -273 255 -436 685 -438 52 0 95 -9 95 -20 0
-11 -45 -20 -99 -20 -186 0 -470 -88 -567 -176 -226 -204 -101 -606 198 -639
69 -8 96 -21 103 -48 14 -55 67 -47 356 51 433 147 489 177 490 267 3 127 36
172 38 50 0 -58 10 -105 21 -105 25 0 605 273 710 334 44 26 123 71 175 101
150 87 65 139 -260 159 -230 15 -225 21 48 59 148 20 252 47 326 83 341 168
292 658 -72 719 l-97 16 -15 109 c-31 210 -159 320 -375 320 -273 0 -399 -168
-471 -630 -19 -121 -26 -140 -27 -77 -12 506 -252 792 -587 699z"/>
<path d="M4660 3667 c-27 -4 -129 -17 -225 -29 -327 -40 -555 -110 -555 -169
0 -36 -1 -36 235 4 2100 354 576 -1278 -1905 -2041 -1059 -326 -1639 -223
-1400 249 65 128 372 439 590 598 94 68 185 136 203 151 19 15 53 37 75 49 53
28 54 81 2 81 -116 0 -691 -426 -980 -726 -658 -684 -252 -1084 890 -875 245
45 702 164 873 228 410 152 725 278 851 341 80 40 151 72 158 72 13 0 183 85
498 249 1449 756 2040 1636 1214 1809 -98 20 -409 26 -524 9z"/>
<path d="M3880 1706 c-137 -72 -331 -167 -430 -210 -341 -147 -348 -154 -265
-230 223 -203 563 -69 605 237 11 73 22 97 48 97 81 0 224 67 281 132 129 147
78 142 -239 -26z"/>
<path d="M2885 1245 c-21 -19 -50 -75 -64 -125 -14 -49 -65 -175 -113 -278
-107 -228 -107 -206 6 -248 133 -49 186 42 257 436 46 256 24 313 -86 215z"/>
</g>
</svg>
